CATALOG 0000000000000
FILE "Taikou Risshiden II (Japan) (Rev A) (10M) (Track 1).bin" BINARY
  TRACK 01 MODE1/2352
    INDEX 01 00:00:00
FILE "Taikou Risshiden II (Japan) (Rev A) (10M) (Track 2).bin" BINARY
  TRACK 02 AUDIO
    INDEX 00 00:00:00
    INDEX 01 00:02:00
FILE "Taikou Risshiden II (Japan) (Rev A) (10M) (Track 3).bin" BINARY
  TRACK 03 AUDIO
    INDEX 00 00:00:00
    INDEX 01 00:02:00
